<?xml version="1.0" encoding="utf-8"?>
<svg version="1.1" xmlns:xlink="http://www.w3.org/1999/xlink" width="34px" height="33px" xmlns="http://www.w3.org/2000/svg">
  <g transform="matrix(1 0 0 1 -46 -696 )">
    <path d="M 46 696  L 80 696  L 80 729  L 46 729  L 46 696  " fill-rule="nonzero" fill="#cccccc" stroke="none" />
    <path d="M 48 698  L 78 698  L 78 727  L 48 727  L 48 698  " fill-rule="nonzero" fill="#ffffff" stroke="none" />
    <path d="M 66.155 705.9  C 64.769 705.9  63.68 704.811  63.68 703.425  C 63.68 702.039  64.769 700.95  66.155 700.95  C 67.541 700.95  68.63 702.039  68.63 703.425  C 68.63 704.811  67.541 705.9  66.155 705.9  " fill-rule="nonzero" fill="#cccccc" stroke="none" />
    <path d="M 49 726  L 49 711.15  L 56 704.4  L 65.8 710.276470588235  L 71.4 708.45  L 77 710.276470588235  L 77 726  L 49 726  " fill-rule="nonzero" fill="#169bd5" stroke="none" />
  </g>
</svg>