<?xml version="1.0" encoding="utf-8"?>
<svg version="1.1" xmlns:xlink="http://www.w3.org/1999/xlink" width="72px" height="72px" xmlns="http://www.w3.org/2000/svg">
  <g transform="matrix(1 0 0 1 -62 -147 )">
    <path d="M 98 147  C 118.16 147  134 162.84  134 183  C 134 203.16  118.16 219  98 219  C 77.84 219  62 203.16  62 183  C 62 162.84  77.84 147  98 147  Z " fill-rule="nonzero" fill="#ffffff" stroke="none" />
    <path d="M 98 147.5  C 117.88 147.5  133.5 163.12  133.5 183  C 133.5 202.88  117.88 218.5  98 218.5  C 78.12 218.5  62.5 202.88  62.5 183  C 62.5 163.12  78.12 147.5  98 147.5  Z " stroke-width="1" stroke="#797979" fill="none" />
  </g>
</svg>