<?xml version="1.0" encoding="utf-8"?>
<svg version="1.1" xmlns:xlink="http://www.w3.org/1999/xlink" width="42px" height="42px" xmlns="http://www.w3.org/2000/svg">
  <g transform="matrix(1 0 0 1 -50 -279 )">
    <path d="M 71 279  C 82.76 279  92 288.24  92 300  C 92 311.76  82.76 321  71 321  C 59.24 321  50 311.76  50 300  C 50 288.24  59.24 279  71 279  Z " fill-rule="nonzero" fill="#ffffff" stroke="none" />
    <path d="M 71 279.5  C 82.48 279.5  91.5 288.52  91.5 300  C 91.5 311.48  82.48 320.5  71 320.5  C 59.52 320.5  50.5 311.48  50.5 300  C 50.5 288.52  59.52 279.5  71 279.5  Z " stroke-width="1" stroke="#797979" fill="none" />
  </g>
</svg>