<?xml version="1.0" encoding="utf-8"?>
<svg version="1.1" xmlns:xlink="http://www.w3.org/1999/xlink" width="166px" height="151px" xmlns="http://www.w3.org/2000/svg">
  <g transform="matrix(1 0 0 1 -129 -199 )">
    <path d="M 129 199  L 295 199  L 295 350  L 129 350  L 129 199  " fill-rule="nonzero" fill="#cccccc" stroke="none" />
    <path d="M 140 210  L 284 210  L 284 339  L 140 339  L 140 210  " fill-rule="nonzero" fill="#ffffff" stroke="none" />
    <path d="M 226.645 244.3  C 220.303 244.3  215.32 239.317  215.32 232.975  C 215.32 226.633  220.303 221.65  226.645 221.65  C 232.987 221.65  237.97 226.633  237.97 232.975  C 237.97 239.317  232.987 244.3  226.645 244.3  " fill-rule="nonzero" fill="#cccccc" stroke="none" />
    <path d="M 144 335  L 144 268.45  L 178 238.2  L 225.6 268.960240963855  L 252.8 256.35  L 280 268.960240963855  L 280 335  L 144 335  " fill-rule="nonzero" fill="#169bd5" stroke="none" />
  </g>
</svg>