<?xml version="1.0" encoding="utf-8"?>
<svg version="1.1" xmlns:xlink="http://www.w3.org/1999/xlink" width="48px" height="48px" xmlns="http://www.w3.org/2000/svg">
  <g transform="matrix(1 0 0 1 -65 -198 )">
    <path d="M 89 198  C 102.44 198  113 208.56  113 222  C 113 235.44  102.44 246  89 246  C 75.56 246  65 235.44  65 222  C 65 208.56  75.56 198  89 198  Z " fill-rule="nonzero" fill="#ffffff" stroke="none" />
    <path d="M 89 198.5  C 102.16 198.5  112.5 208.84  112.5 222  C 112.5 235.16  102.16 245.5  89 245.5  C 75.84 245.5  65.5 235.16  65.5 222  C 65.5 208.84  75.84 198.5  89 198.5  Z " stroke-width="1" stroke="#797979" fill="none" />
  </g>
</svg>