<?xml version="1.0" encoding="utf-8"?>
<svg version="1.1" xmlns:xlink="http://www.w3.org/1999/xlink" width="75px" height="73px" xmlns="http://www.w3.org/2000/svg">
  <g transform="matrix(1 0 0 1 -50 -548 )">
    <path d="M 51 559  A 10 10 0 0 1 61 549 L 114 549  A 10 10 0 0 1 124 559 L 124 610  A 10 10 0 0 1 114 620 L 61 620  A 10 10 0 0 1 51 610 L 51 559  Z " fill-rule="nonzero" fill="#ffffff" stroke="none" />
    <path d="M 50.5 559  A 10.5 10.5 0 0 1 61 548.5 L 114 548.5  A 10.5 10.5 0 0 1 124.5 559 L 124.5 610  A 10.5 10.5 0 0 1 114 620.5 L 61 620.5  A 10.5 10.5 0 0 1 50.5 610 L 50.5 559  Z " stroke-width="1" stroke-dasharray="9,4" stroke="#797979" fill="none" stroke-dashoffset="0.5" />
  </g>
</svg>