<?xml version="1.0" encoding="utf-8"?>
<svg version="1.1" xmlns:xlink="http://www.w3.org/1999/xlink" width="59px" height="59px" xmlns="http://www.w3.org/2000/svg">
  <g transform="matrix(1 0 0 1 -50 -172 )">
    <path d="M 79.5 172  C 96.02 172  109 184.98  109 201.5  C 109 218.02  96.02 231  79.5 231  C 62.98 231  50 218.02  50 201.5  C 50 184.98  62.98 172  79.5 172  Z " fill-rule="nonzero" fill="#ffffff" stroke="none" />
    <path d="M 79.5 172.5  C 95.74 172.5  108.5 185.26  108.5 201.5  C 108.5 217.74  95.74 230.5  79.5 230.5  C 63.26 230.5  50.5 217.74  50.5 201.5  C 50.5 185.26  63.26 172.5  79.5 172.5  Z " stroke-width="1" stroke="#797979" fill="none" />
  </g>
</svg>