<?xml version="1.0" encoding="utf-8"?>
<svg version="1.1" xmlns:xlink="http://www.w3.org/1999/xlink" width="40px" height="40px" xmlns="http://www.w3.org/2000/svg">
  <g transform="matrix(1 0 0 1 -38 -324 )">
    <path d="M 58 324  C 69.2 324  78 332.8  78 344  C 78 355.2  69.2 364  58 364  C 46.8 364  38 355.2  38 344  C 38 332.8  46.8 324  58 324  Z " fill-rule="nonzero" fill="#ffffff" stroke="none" />
    <path d="M 58 324.5  C 68.92 324.5  77.5 333.08  77.5 344  C 77.5 354.92  68.92 363.5  58 363.5  C 47.08 363.5  38.5 354.92  38.5 344  C 38.5 333.08  47.08 324.5  58 324.5  Z " stroke-width="1" stroke="#797979" fill="none" />
  </g>
</svg>